<mxfile host="app.diagrams.net" modified="2022-01-10T08:43:20.905Z" agent="5.0 (X11; Linux x86_64) AppleWebKit/537.36 (KHTML, like Gecko) Chrome/96.0.4664.110 Safari/537.36" etag="ApDohwc4igNGxkAfG4Fw" version="16.2.2" type="github">
  <diagram id="-UwCyb8EPpXwhege9Taq" name="Page-1">
    <mxGraphModel dx="2494" dy="644" grid="1" gridSize="10" guides="1" tooltips="1" connect="1" arrows="1" fold="1" page="1" pageScale="1" pageWidth="1169" pageHeight="827" math="0" shadow="0">
      <root>
        <mxCell id="0" />
        <mxCell id="1" parent="0" />
        <mxCell id="8PEX_Hkn2caYpky-pX6P-1" value="" style="rounded=0;whiteSpace=wrap;html=1;" vertex="1" parent="1">
          <mxGeometry x="200" y="140" width="960" height="90" as="geometry" />
        </mxCell>
        <mxCell id="8PEX_Hkn2caYpky-pX6P-2" value="&amp;nbsp; &amp;nbsp; &amp;nbsp; &amp;nbsp; &amp;nbsp;Driver" style="rounded=0;whiteSpace=wrap;html=1;fillColor=#FFF2CC;" vertex="1" parent="1">
          <mxGeometry x="230" y="160" width="120" height="40" as="geometry" />
        </mxCell>
        <mxCell id="8PEX_Hkn2caYpky-pX6P-8" value="java.sql" style="rounded=1;whiteSpace=wrap;html=1;" vertex="1" parent="1">
          <mxGeometry x="200" y="100" width="80" height="40" as="geometry" />
        </mxCell>
        <mxCell id="8PEX_Hkn2caYpky-pX6P-9" value="&amp;nbsp; &amp;nbsp; &amp;nbsp; &amp;nbsp; &amp;nbsp; &amp;nbsp;Connection" style="rounded=0;whiteSpace=wrap;html=1;fillColor=#FFF2CC;" vertex="1" parent="1">
          <mxGeometry x="360" y="160" width="120" height="40" as="geometry" />
        </mxCell>
        <mxCell id="8PEX_Hkn2caYpky-pX6P-10" value="&amp;nbsp; &amp;nbsp; &amp;nbsp; &amp;nbsp; Statement" style="rounded=0;whiteSpace=wrap;html=1;fillColor=#FFF2CC;" vertex="1" parent="1">
          <mxGeometry x="490" y="160" width="120" height="40" as="geometry" />
        </mxCell>
        <mxCell id="8PEX_Hkn2caYpky-pX6P-11" value="&amp;nbsp; &amp;nbsp; &amp;nbsp; &amp;nbsp; &amp;nbsp; &amp;nbsp; &amp;nbsp;ParameterMetaData" style="rounded=0;whiteSpace=wrap;html=1;fillColor=#FFF2CC;" vertex="1" parent="1">
          <mxGeometry x="630" y="160" width="180" height="40" as="geometry" />
        </mxCell>
        <mxCell id="8PEX_Hkn2caYpky-pX6P-12" value="&amp;nbsp; &amp;nbsp; &amp;nbsp; &amp;nbsp; &amp;nbsp; &amp;nbsp; &amp;nbsp;PreparedStatement" style="rounded=0;whiteSpace=wrap;html=1;fillColor=#FFF2CC;" vertex="1" parent="1">
          <mxGeometry x="830" y="160" width="160" height="40" as="geometry" />
        </mxCell>
        <mxCell id="8PEX_Hkn2caYpky-pX6P-13" value="&amp;nbsp; &amp;nbsp; &amp;nbsp; &amp;nbsp; &amp;nbsp; &amp;nbsp; ResultSet" style="rounded=0;whiteSpace=wrap;html=1;fillColor=#FFF2CC;" vertex="1" parent="1">
          <mxGeometry x="1010" y="160" width="120" height="40" as="geometry" />
        </mxCell>
        <mxCell id="8PEX_Hkn2caYpky-pX6P-14" value="" style="rounded=0;whiteSpace=wrap;html=1;fillColor=#FFF2CC;" vertex="1" parent="1">
          <mxGeometry x="230" y="200" width="120" height="10" as="geometry" />
        </mxCell>
        <mxCell id="8PEX_Hkn2caYpky-pX6P-15" value="" style="rounded=0;whiteSpace=wrap;html=1;fillColor=#FFF2CC;" vertex="1" parent="1">
          <mxGeometry x="360" y="200" width="120" height="10" as="geometry" />
        </mxCell>
        <mxCell id="8PEX_Hkn2caYpky-pX6P-16" value="" style="rounded=0;whiteSpace=wrap;html=1;fillColor=#FFF2CC;" vertex="1" parent="1">
          <mxGeometry x="490" y="200" width="120" height="10" as="geometry" />
        </mxCell>
        <mxCell id="8PEX_Hkn2caYpky-pX6P-17" value="" style="rounded=0;whiteSpace=wrap;html=1;fillColor=#FFF2CC;" vertex="1" parent="1">
          <mxGeometry x="630" y="200" width="180" height="10" as="geometry" />
        </mxCell>
        <mxCell id="8PEX_Hkn2caYpky-pX6P-18" value="" style="rounded=0;whiteSpace=wrap;html=1;fillColor=#FFF2CC;" vertex="1" parent="1">
          <mxGeometry x="830" y="200" width="160" height="10" as="geometry" />
        </mxCell>
        <mxCell id="8PEX_Hkn2caYpky-pX6P-19" value="" style="rounded=0;whiteSpace=wrap;html=1;fillColor=#FFF2CC;" vertex="1" parent="1">
          <mxGeometry x="1010" y="200" width="120" height="10" as="geometry" />
        </mxCell>
        <mxCell id="8PEX_Hkn2caYpky-pX6P-20" value="" style="rounded=0;whiteSpace=wrap;html=1;fillColor=#FFFFFF;" vertex="1" parent="1">
          <mxGeometry y="140" width="170" height="90" as="geometry" />
        </mxCell>
        <mxCell id="8PEX_Hkn2caYpky-pX6P-21" value="&amp;nbsp; &amp;nbsp; &amp;nbsp; &amp;nbsp; &amp;nbsp;QueryProvider" style="rounded=0;whiteSpace=wrap;html=1;fillColor=#FFF2CC;" vertex="1" parent="1">
          <mxGeometry x="25" y="160" width="120" height="40" as="geometry" />
        </mxCell>
        <mxCell id="8PEX_Hkn2caYpky-pX6P-22" value="" style="rounded=0;whiteSpace=wrap;html=1;fillColor=#FFF2CC;" vertex="1" parent="1">
          <mxGeometry x="25" y="200" width="120" height="10" as="geometry" />
        </mxCell>
        <mxCell id="8PEX_Hkn2caYpky-pX6P-23" value="org.apache.calcite.linq4j" style="rounded=1;whiteSpace=wrap;html=1;" vertex="1" parent="1">
          <mxGeometry y="100" width="170" height="40" as="geometry" />
        </mxCell>
        <mxCell id="8PEX_Hkn2caYpky-pX6P-24" value="" style="rounded=0;whiteSpace=wrap;html=1;fillColor=#FFF2CC;" vertex="1" parent="1">
          <mxGeometry x="230" y="210" width="120" height="10" as="geometry" />
        </mxCell>
        <mxCell id="8PEX_Hkn2caYpky-pX6P-25" value="" style="rounded=0;whiteSpace=wrap;html=1;fillColor=#FFF2CC;" vertex="1" parent="1">
          <mxGeometry x="360" y="210" width="120" height="10" as="geometry" />
        </mxCell>
        <mxCell id="8PEX_Hkn2caYpky-pX6P-26" value="" style="rounded=0;whiteSpace=wrap;html=1;fillColor=#FFF2CC;" vertex="1" parent="1">
          <mxGeometry x="490" y="210" width="120" height="10" as="geometry" />
        </mxCell>
        <mxCell id="8PEX_Hkn2caYpky-pX6P-27" value="" style="rounded=0;whiteSpace=wrap;html=1;fillColor=#FFF2CC;" vertex="1" parent="1">
          <mxGeometry x="630" y="210" width="180" height="10" as="geometry" />
        </mxCell>
        <mxCell id="8PEX_Hkn2caYpky-pX6P-28" value="" style="rounded=0;whiteSpace=wrap;html=1;fillColor=#FFF2CC;" vertex="1" parent="1">
          <mxGeometry x="830" y="210" width="160" height="10" as="geometry" />
        </mxCell>
        <mxCell id="8PEX_Hkn2caYpky-pX6P-29" value="" style="rounded=0;whiteSpace=wrap;html=1;fillColor=#FFF2CC;" vertex="1" parent="1">
          <mxGeometry x="1010" y="210" width="120" height="10" as="geometry" />
        </mxCell>
        <mxCell id="8PEX_Hkn2caYpky-pX6P-30" value="&amp;nbsp; &amp;nbsp; &amp;nbsp; &amp;nbsp; &amp;nbsp; &amp;nbsp;CalciteConnection" style="rounded=0;whiteSpace=wrap;html=1;fillColor=#FFF2CC;" vertex="1" parent="1">
          <mxGeometry x="200" y="320" width="150" height="40" as="geometry" />
        </mxCell>
        <mxCell id="8PEX_Hkn2caYpky-pX6P-31" value="&amp;nbsp; &amp;nbsp; &amp;nbsp; &amp;nbsp; &amp;nbsp; &amp;nbsp;AvaticaConnection" style="rounded=0;whiteSpace=wrap;html=1;fillColor=#FFF2CC;" vertex="1" parent="1">
          <mxGeometry x="380" y="320" width="160" height="40" as="geometry" />
        </mxCell>
        <mxCell id="8PEX_Hkn2caYpky-pX6P-32" value="&amp;nbsp; &amp;nbsp; &amp;nbsp; &amp;nbsp; &amp;nbsp; &amp;nbsp; &amp;nbsp; AvaticaStatement" style="rounded=0;whiteSpace=wrap;html=1;fillColor=#FFF2CC;" vertex="1" parent="1">
          <mxGeometry x="601" y="320" width="146" height="40" as="geometry" />
        </mxCell>
        <mxCell id="8PEX_Hkn2caYpky-pX6P-33" value="&amp;nbsp; &amp;nbsp; &amp;nbsp; &amp;nbsp; &amp;nbsp; AvaticaPreParedStatement" style="rounded=0;whiteSpace=wrap;html=1;fillColor=#FFF2CC;" vertex="1" parent="1">
          <mxGeometry x="840" y="425" width="190" height="40" as="geometry" />
        </mxCell>
        <mxCell id="8PEX_Hkn2caYpky-pX6P-34" value="&amp;nbsp; &amp;nbsp; &amp;nbsp; &amp;nbsp; &amp;nbsp;PreparedStatement" style="rounded=0;whiteSpace=wrap;html=1;fillColor=#FFF2CC;" vertex="1" parent="1">
          <mxGeometry x="1120" y="320" width="150" height="40" as="geometry" />
        </mxCell>
        <mxCell id="8PEX_Hkn2caYpky-pX6P-35" value="ResultSet" style="rounded=0;whiteSpace=wrap;html=1;fillColor=#FFF2CC;" vertex="1" parent="1">
          <mxGeometry x="1120" y="425" width="150" height="40" as="geometry" />
        </mxCell>
        <mxCell id="8PEX_Hkn2caYpky-pX6P-36" value="" style="rounded=0;whiteSpace=wrap;html=1;fillColor=#FFF2CC;" vertex="1" parent="1">
          <mxGeometry x="200" y="360" width="150" height="10" as="geometry" />
        </mxCell>
        <mxCell id="8PEX_Hkn2caYpky-pX6P-37" value="" style="rounded=0;whiteSpace=wrap;html=1;fillColor=#FFF2CC;" vertex="1" parent="1">
          <mxGeometry x="380" y="360" width="160" height="10" as="geometry" />
        </mxCell>
        <mxCell id="8PEX_Hkn2caYpky-pX6P-38" value="" style="rounded=0;whiteSpace=wrap;html=1;fillColor=#FFF2CC;" vertex="1" parent="1">
          <mxGeometry x="601" y="360" width="146" height="10" as="geometry" />
        </mxCell>
        <mxCell id="8PEX_Hkn2caYpky-pX6P-39" value="" style="rounded=0;whiteSpace=wrap;html=1;fillColor=#FFF2CC;" vertex="1" parent="1">
          <mxGeometry x="840" y="465" width="190" height="10" as="geometry" />
        </mxCell>
        <mxCell id="8PEX_Hkn2caYpky-pX6P-40" value="" style="rounded=0;whiteSpace=wrap;html=1;fillColor=#FFF2CC;" vertex="1" parent="1">
          <mxGeometry x="1120" y="360" width="150" height="10" as="geometry" />
        </mxCell>
        <mxCell id="8PEX_Hkn2caYpky-pX6P-41" value="" style="rounded=0;whiteSpace=wrap;html=1;fillColor=#FFF2CC;" vertex="1" parent="1">
          <mxGeometry x="1120" y="465" width="150" height="10" as="geometry" />
        </mxCell>
        <mxCell id="8PEX_Hkn2caYpky-pX6P-42" value="" style="rounded=0;whiteSpace=wrap;html=1;fillColor=#FFF2CC;" vertex="1" parent="1">
          <mxGeometry x="200" y="370" width="150" height="10" as="geometry" />
        </mxCell>
        <mxCell id="8PEX_Hkn2caYpky-pX6P-43" value="" style="rounded=0;whiteSpace=wrap;html=1;fillColor=#FFF2CC;" vertex="1" parent="1">
          <mxGeometry x="380" y="370" width="160" height="10" as="geometry" />
        </mxCell>
        <mxCell id="8PEX_Hkn2caYpky-pX6P-44" value="" style="rounded=0;whiteSpace=wrap;html=1;fillColor=#FFF2CC;" vertex="1" parent="1">
          <mxGeometry x="601" y="370" width="146" height="10" as="geometry" />
        </mxCell>
        <mxCell id="8PEX_Hkn2caYpky-pX6P-45" value="" style="rounded=0;whiteSpace=wrap;html=1;fillColor=#FFF2CC;" vertex="1" parent="1">
          <mxGeometry x="840" y="475" width="190" height="10" as="geometry" />
        </mxCell>
        <mxCell id="8PEX_Hkn2caYpky-pX6P-46" value="" style="rounded=0;whiteSpace=wrap;html=1;fillColor=#FFF2CC;" vertex="1" parent="1">
          <mxGeometry x="1120" y="370" width="150" height="10" as="geometry" />
        </mxCell>
        <mxCell id="8PEX_Hkn2caYpky-pX6P-47" value="" style="rounded=0;whiteSpace=wrap;html=1;fillColor=#FFF2CC;" vertex="1" parent="1">
          <mxGeometry x="1120" y="475" width="150" height="10" as="geometry" />
        </mxCell>
        <mxCell id="8PEX_Hkn2caYpky-pX6P-48" value="" style="endArrow=classic;html=1;rounded=0;exitX=0.717;exitY=0;exitDx=0;exitDy=0;exitPerimeter=0;entryX=0.5;entryY=1;entryDx=0;entryDy=0;fillColor=#FFF2CC;" edge="1" parent="1" source="8PEX_Hkn2caYpky-pX6P-30" target="8PEX_Hkn2caYpky-pX6P-25">
          <mxGeometry width="50" height="50" relative="1" as="geometry">
            <mxPoint x="320" y="340" as="sourcePoint" />
            <mxPoint x="410" y="300" as="targetPoint" />
          </mxGeometry>
        </mxCell>
        <mxCell id="8PEX_Hkn2caYpky-pX6P-49" value="" style="rounded=0;whiteSpace=wrap;html=1;fillColor=#FFF2CC;" vertex="1" parent="1">
          <mxGeometry x="25" y="210" width="120" height="10" as="geometry" />
        </mxCell>
        <mxCell id="8PEX_Hkn2caYpky-pX6P-50" value="" style="endArrow=classic;html=1;rounded=0;exitX=0.25;exitY=0;exitDx=0;exitDy=0;entryX=0.75;entryY=1;entryDx=0;entryDy=0;fillColor=#FFF2CC;" edge="1" parent="1" source="8PEX_Hkn2caYpky-pX6P-30" target="8PEX_Hkn2caYpky-pX6P-49">
          <mxGeometry width="50" height="50" relative="1" as="geometry">
            <mxPoint x="324.1200000000001" y="361.84000000000003" as="sourcePoint" />
            <mxPoint x="430" y="230" as="targetPoint" />
          </mxGeometry>
        </mxCell>
        <mxCell id="8PEX_Hkn2caYpky-pX6P-51" value="I" style="ellipse;whiteSpace=wrap;html=1;aspect=fixed;fillColor=#E6D0DE;" vertex="1" parent="1">
          <mxGeometry x="240" y="165" width="30" height="30" as="geometry" />
        </mxCell>
        <mxCell id="8PEX_Hkn2caYpky-pX6P-52" value="I" style="ellipse;whiteSpace=wrap;html=1;aspect=fixed;fillColor=#E6D0DE;" vertex="1" parent="1">
          <mxGeometry x="367" y="165" width="30" height="30" as="geometry" />
        </mxCell>
        <mxCell id="8PEX_Hkn2caYpky-pX6P-53" value="I" style="ellipse;whiteSpace=wrap;html=1;aspect=fixed;fillColor=#E6D0DE;" vertex="1" parent="1">
          <mxGeometry x="497" y="165" width="30" height="30" as="geometry" />
        </mxCell>
        <mxCell id="8PEX_Hkn2caYpky-pX6P-54" value="I" style="ellipse;whiteSpace=wrap;html=1;aspect=fixed;fillColor=#E6D0DE;" vertex="1" parent="1">
          <mxGeometry x="639" y="165" width="30" height="30" as="geometry" />
        </mxCell>
        <mxCell id="8PEX_Hkn2caYpky-pX6P-55" value="I" style="ellipse;whiteSpace=wrap;html=1;aspect=fixed;fillColor=#E6D0DE;" vertex="1" parent="1">
          <mxGeometry x="840" y="165" width="30" height="30" as="geometry" />
        </mxCell>
        <mxCell id="8PEX_Hkn2caYpky-pX6P-56" value="I" style="ellipse;whiteSpace=wrap;html=1;aspect=fixed;fillColor=#E6D0DE;" vertex="1" parent="1">
          <mxGeometry x="1020" y="165" width="30" height="30" as="geometry" />
        </mxCell>
        <mxCell id="8PEX_Hkn2caYpky-pX6P-57" value="&amp;nbsp; &amp;nbsp; &amp;nbsp; &amp;nbsp; &amp;nbsp; &amp;nbsp; &amp;nbsp;ArrayFactoryImpl" style="rounded=0;whiteSpace=wrap;html=1;fillColor=#FFF2CC;" vertex="1" parent="1">
          <mxGeometry x="1200" y="160" width="150" height="40" as="geometry" />
        </mxCell>
        <mxCell id="8PEX_Hkn2caYpky-pX6P-58" value="" style="rounded=0;whiteSpace=wrap;html=1;fillColor=#FFF2CC;" vertex="1" parent="1">
          <mxGeometry x="1200" y="200" width="150" height="10" as="geometry" />
        </mxCell>
        <mxCell id="8PEX_Hkn2caYpky-pX6P-59" value="" style="rounded=0;whiteSpace=wrap;html=1;fillColor=#FFF2CC;" vertex="1" parent="1">
          <mxGeometry x="1200" y="210" width="150" height="10" as="geometry" />
        </mxCell>
        <mxCell id="8PEX_Hkn2caYpky-pX6P-60" value="C" style="ellipse;whiteSpace=wrap;html=1;aspect=fixed;fillColor=#9AC7BF;" vertex="1" parent="1">
          <mxGeometry x="1210" y="165" width="30" height="30" as="geometry" />
        </mxCell>
        <mxCell id="8PEX_Hkn2caYpky-pX6P-61" value="I" style="ellipse;whiteSpace=wrap;html=1;aspect=fixed;fillColor=#E6D0DE;" vertex="1" parent="1">
          <mxGeometry x="28" y="165" width="30" height="30" as="geometry" />
        </mxCell>
        <mxCell id="8PEX_Hkn2caYpky-pX6P-62" value="" style="endArrow=classic;html=1;rounded=0;exitX=0.5;exitY=0;exitDx=0;exitDy=0;entryX=0.5;entryY=1;entryDx=0;entryDy=0;fillColor=#FFF2CC;" edge="1" parent="1" source="8PEX_Hkn2caYpky-pX6P-31" target="8PEX_Hkn2caYpky-pX6P-25">
          <mxGeometry width="50" height="50" relative="1" as="geometry">
            <mxPoint x="324.1200000000001" y="361.84000000000003" as="sourcePoint" />
            <mxPoint x="430" y="230" as="targetPoint" />
          </mxGeometry>
        </mxCell>
        <mxCell id="8PEX_Hkn2caYpky-pX6P-63" value="I" style="ellipse;whiteSpace=wrap;html=1;aspect=fixed;fillColor=#E6D0DE;" vertex="1" parent="1">
          <mxGeometry x="210" y="325" width="30" height="30" as="geometry" />
        </mxCell>
        <mxCell id="8PEX_Hkn2caYpky-pX6P-64" value="A" style="ellipse;whiteSpace=wrap;html=1;aspect=fixed;fillColor=#B3B3B3;" vertex="1" parent="1">
          <mxGeometry x="387" y="325" width="30" height="30" as="geometry" />
        </mxCell>
        <mxCell id="8PEX_Hkn2caYpky-pX6P-65" value="A" style="ellipse;whiteSpace=wrap;html=1;aspect=fixed;fillColor=#B3B3B3;" vertex="1" parent="1">
          <mxGeometry x="607" y="325" width="30" height="30" as="geometry" />
        </mxCell>
        <mxCell id="8PEX_Hkn2caYpky-pX6P-66" value="" style="endArrow=classic;html=1;rounded=0;exitX=0.5;exitY=0;exitDx=0;exitDy=0;fillColor=#FFF2CC;" edge="1" parent="1" source="8PEX_Hkn2caYpky-pX6P-32" target="8PEX_Hkn2caYpky-pX6P-26">
          <mxGeometry width="50" height="50" relative="1" as="geometry">
            <mxPoint x="450" y="360" as="sourcePoint" />
            <mxPoint x="430" y="230" as="targetPoint" />
          </mxGeometry>
        </mxCell>
        <mxCell id="8PEX_Hkn2caYpky-pX6P-67" value="&amp;nbsp; &amp;nbsp; &amp;nbsp; &amp;nbsp; &amp;nbsp; &amp;nbsp; &amp;nbsp; CalciteStatement" style="rounded=0;whiteSpace=wrap;html=1;fillColor=#FFF2CC;" vertex="1" parent="1">
          <mxGeometry x="601" y="425" width="146" height="40" as="geometry" />
        </mxCell>
        <mxCell id="8PEX_Hkn2caYpky-pX6P-68" value="" style="rounded=0;whiteSpace=wrap;html=1;fillColor=#FFF2CC;" vertex="1" parent="1">
          <mxGeometry x="601" y="465" width="146" height="10" as="geometry" />
        </mxCell>
        <mxCell id="8PEX_Hkn2caYpky-pX6P-69" value="" style="rounded=0;whiteSpace=wrap;html=1;fillColor=#FFF2CC;" vertex="1" parent="1">
          <mxGeometry x="601" y="475" width="146" height="10" as="geometry" />
        </mxCell>
        <mxCell id="8PEX_Hkn2caYpky-pX6P-70" value="A" style="ellipse;whiteSpace=wrap;html=1;aspect=fixed;fillColor=#B3B3B3;" vertex="1" parent="1">
          <mxGeometry x="607" y="430" width="30" height="30" as="geometry" />
        </mxCell>
        <mxCell id="8PEX_Hkn2caYpky-pX6P-71" value="&amp;nbsp; &amp;nbsp; &amp;nbsp; &amp;nbsp; &amp;nbsp; &amp;nbsp; &amp;nbsp; CalciteJdbc41Statement" style="rounded=0;whiteSpace=wrap;html=1;fillColor=#FFF2CC;" vertex="1" parent="1">
          <mxGeometry x="581" y="530" width="186" height="40" as="geometry" />
        </mxCell>
        <mxCell id="8PEX_Hkn2caYpky-pX6P-72" value="" style="rounded=0;whiteSpace=wrap;html=1;fillColor=#FFF2CC;" vertex="1" parent="1">
          <mxGeometry x="581" y="570" width="186" height="10" as="geometry" />
        </mxCell>
        <mxCell id="8PEX_Hkn2caYpky-pX6P-73" value="" style="rounded=0;whiteSpace=wrap;html=1;fillColor=#FFF2CC;" vertex="1" parent="1">
          <mxGeometry x="581" y="580" width="186" height="10" as="geometry" />
        </mxCell>
        <mxCell id="8PEX_Hkn2caYpky-pX6P-75" value="A" style="ellipse;whiteSpace=wrap;html=1;aspect=fixed;fillColor=#B3B3B3;" vertex="1" parent="1">
          <mxGeometry x="844" y="430" width="30" height="30" as="geometry" />
        </mxCell>
        <mxCell id="8PEX_Hkn2caYpky-pX6P-76" value="&amp;nbsp; &amp;nbsp; &amp;nbsp; &amp;nbsp; &amp;nbsp; CalcitePreparedStatement" style="rounded=0;whiteSpace=wrap;html=1;fillColor=#FFF2CC;" vertex="1" parent="1">
          <mxGeometry x="840" y="530" width="190" height="40" as="geometry" />
        </mxCell>
        <mxCell id="8PEX_Hkn2caYpky-pX6P-77" value="" style="rounded=0;whiteSpace=wrap;html=1;fillColor=#FFF2CC;" vertex="1" parent="1">
          <mxGeometry x="840" y="570" width="190" height="10" as="geometry" />
        </mxCell>
        <mxCell id="8PEX_Hkn2caYpky-pX6P-78" value="" style="rounded=0;whiteSpace=wrap;html=1;fillColor=#FFF2CC;" vertex="1" parent="1">
          <mxGeometry x="840" y="580" width="190" height="10" as="geometry" />
        </mxCell>
        <mxCell id="8PEX_Hkn2caYpky-pX6P-79" value="A" style="ellipse;whiteSpace=wrap;html=1;aspect=fixed;fillColor=#B3B3B3;" vertex="1" parent="1">
          <mxGeometry x="844" y="535" width="30" height="30" as="geometry" />
        </mxCell>
        <mxCell id="8PEX_Hkn2caYpky-pX6P-80" value="C" style="ellipse;whiteSpace=wrap;html=1;aspect=fixed;fillColor=#9AC7BF;" vertex="1" parent="1">
          <mxGeometry x="590" y="535" width="30" height="30" as="geometry" />
        </mxCell>
        <mxCell id="8PEX_Hkn2caYpky-pX6P-81" value="&amp;nbsp; &amp;nbsp; &amp;nbsp; &amp;nbsp; &amp;nbsp; CalciteJdbc41PreparedStatement" style="rounded=0;whiteSpace=wrap;html=1;fillColor=#FFF2CC;" vertex="1" parent="1">
          <mxGeometry x="820" y="650" width="230" height="40" as="geometry" />
        </mxCell>
        <mxCell id="8PEX_Hkn2caYpky-pX6P-82" value="" style="rounded=0;whiteSpace=wrap;html=1;fillColor=#FFF2CC;" vertex="1" parent="1">
          <mxGeometry x="820" y="690" width="230" height="10" as="geometry" />
        </mxCell>
        <mxCell id="8PEX_Hkn2caYpky-pX6P-83" value="" style="rounded=0;whiteSpace=wrap;html=1;fillColor=#FFF2CC;" vertex="1" parent="1">
          <mxGeometry x="820" y="700" width="230" height="10" as="geometry" />
        </mxCell>
        <mxCell id="8PEX_Hkn2caYpky-pX6P-85" value="C" style="ellipse;whiteSpace=wrap;html=1;aspect=fixed;fillColor=#9AC7BF;" vertex="1" parent="1">
          <mxGeometry x="827" y="655" width="30" height="30" as="geometry" />
        </mxCell>
        <mxCell id="8PEX_Hkn2caYpky-pX6P-117" value="" style="endArrow=classic;html=1;rounded=0;exitX=0.5;exitY=0;exitDx=0;exitDy=0;fillColor=#FFF2CC;entryX=0.75;entryY=1;entryDx=0;entryDy=0;" edge="1" parent="1" source="8PEX_Hkn2caYpky-pX6P-33" target="8PEX_Hkn2caYpky-pX6P-27">
          <mxGeometry width="50" height="50" relative="1" as="geometry">
            <mxPoint x="683.9999999999998" y="330" as="sourcePoint" />
            <mxPoint x="565.9047619047622" y="230" as="targetPoint" />
          </mxGeometry>
        </mxCell>
        <mxCell id="8PEX_Hkn2caYpky-pX6P-118" value="" style="endArrow=classic;html=1;rounded=0;exitX=0.5;exitY=0;exitDx=0;exitDy=0;fillColor=#FFF2CC;entryX=0.5;entryY=1;entryDx=0;entryDy=0;" edge="1" parent="1" source="8PEX_Hkn2caYpky-pX6P-67" target="8PEX_Hkn2caYpky-pX6P-44">
          <mxGeometry width="50" height="50" relative="1" as="geometry">
            <mxPoint x="693.9999999999998" y="340" as="sourcePoint" />
            <mxPoint x="575.9047619047622" y="240" as="targetPoint" />
          </mxGeometry>
        </mxCell>
        <mxCell id="8PEX_Hkn2caYpky-pX6P-119" value="" style="endArrow=classic;html=1;rounded=0;exitX=0.5;exitY=0;exitDx=0;exitDy=0;fillColor=#FFF2CC;entryX=0.5;entryY=1;entryDx=0;entryDy=0;" edge="1" parent="1" source="8PEX_Hkn2caYpky-pX6P-71" target="8PEX_Hkn2caYpky-pX6P-69">
          <mxGeometry width="50" height="50" relative="1" as="geometry">
            <mxPoint x="703.9999999999998" y="350" as="sourcePoint" />
            <mxPoint x="585.9047619047622" y="250" as="targetPoint" />
          </mxGeometry>
        </mxCell>
        <mxCell id="8PEX_Hkn2caYpky-pX6P-120" value="" style="endArrow=classic;html=1;rounded=0;exitX=0.5;exitY=0;exitDx=0;exitDy=0;fillColor=#FFF2CC;" edge="1" parent="1" source="8PEX_Hkn2caYpky-pX6P-33" target="8PEX_Hkn2caYpky-pX6P-28">
          <mxGeometry width="50" height="50" relative="1" as="geometry">
            <mxPoint x="945" y="435" as="sourcePoint" />
            <mxPoint x="775" y="230" as="targetPoint" />
          </mxGeometry>
        </mxCell>
        <mxCell id="8PEX_Hkn2caYpky-pX6P-121" value="" style="endArrow=classic;html=1;rounded=0;fillColor=#FFF2CC;entryX=0.792;entryY=1.35;entryDx=0;entryDy=0;entryPerimeter=0;exitX=0.25;exitY=0;exitDx=0;exitDy=0;" edge="1" parent="1" source="8PEX_Hkn2caYpky-pX6P-33" target="8PEX_Hkn2caYpky-pX6P-44">
          <mxGeometry width="50" height="50" relative="1" as="geometry">
            <mxPoint x="870" y="420" as="sourcePoint" />
            <mxPoint x="785" y="240" as="targetPoint" />
          </mxGeometry>
        </mxCell>
        <mxCell id="8PEX_Hkn2caYpky-pX6P-122" value="" style="endArrow=classic;html=1;rounded=0;exitX=0.5;exitY=0;exitDx=0;exitDy=0;fillColor=#FFF2CC;entryX=0.5;entryY=1;entryDx=0;entryDy=0;" edge="1" parent="1" source="8PEX_Hkn2caYpky-pX6P-76" target="8PEX_Hkn2caYpky-pX6P-45">
          <mxGeometry width="50" height="50" relative="1" as="geometry">
            <mxPoint x="965" y="455" as="sourcePoint" />
            <mxPoint x="795" y="250" as="targetPoint" />
          </mxGeometry>
        </mxCell>
        <mxCell id="8PEX_Hkn2caYpky-pX6P-123" value="" style="endArrow=classic;html=1;rounded=0;exitX=0.5;exitY=0;exitDx=0;exitDy=0;fillColor=#FFF2CC;entryX=0.5;entryY=1;entryDx=0;entryDy=0;" edge="1" parent="1" source="8PEX_Hkn2caYpky-pX6P-81" target="8PEX_Hkn2caYpky-pX6P-78">
          <mxGeometry width="50" height="50" relative="1" as="geometry">
            <mxPoint x="975" y="465" as="sourcePoint" />
            <mxPoint x="805" y="260" as="targetPoint" />
          </mxGeometry>
        </mxCell>
        <mxCell id="8PEX_Hkn2caYpky-pX6P-124" value="" style="endArrow=classic;html=1;rounded=0;exitX=0.5;exitY=0;exitDx=0;exitDy=0;fillColor=#FFF2CC;entryX=0.5;entryY=1;entryDx=0;entryDy=0;" edge="1" parent="1" source="8PEX_Hkn2caYpky-pX6P-35" target="8PEX_Hkn2caYpky-pX6P-46">
          <mxGeometry width="50" height="50" relative="1" as="geometry">
            <mxPoint x="985" y="475" as="sourcePoint" />
            <mxPoint x="815" y="270" as="targetPoint" />
          </mxGeometry>
        </mxCell>
        <mxCell id="8PEX_Hkn2caYpky-pX6P-125" value="" style="endArrow=classic;html=1;rounded=0;exitX=0.25;exitY=0;exitDx=0;exitDy=0;fillColor=#FFF2CC;entryX=0.5;entryY=1;entryDx=0;entryDy=0;" edge="1" parent="1" source="8PEX_Hkn2caYpky-pX6P-34" target="8PEX_Hkn2caYpky-pX6P-29">
          <mxGeometry width="50" height="50" relative="1" as="geometry">
            <mxPoint x="995" y="485" as="sourcePoint" />
            <mxPoint x="825" y="280" as="targetPoint" />
          </mxGeometry>
        </mxCell>
        <mxCell id="8PEX_Hkn2caYpky-pX6P-126" value="" style="endArrow=classic;html=1;rounded=0;exitX=0.75;exitY=0;exitDx=0;exitDy=0;fillColor=#FFF2CC;entryX=0.5;entryY=1;entryDx=0;entryDy=0;" edge="1" parent="1" source="8PEX_Hkn2caYpky-pX6P-34" target="8PEX_Hkn2caYpky-pX6P-59">
          <mxGeometry width="50" height="50" relative="1" as="geometry">
            <mxPoint x="1005" y="495" as="sourcePoint" />
            <mxPoint x="835" y="290" as="targetPoint" />
          </mxGeometry>
        </mxCell>
        <mxCell id="8PEX_Hkn2caYpky-pX6P-127" value="C" style="ellipse;whiteSpace=wrap;html=1;aspect=fixed;fillColor=#9AC7BF;" vertex="1" parent="1">
          <mxGeometry x="1123" y="325" width="30" height="30" as="geometry" />
        </mxCell>
        <mxCell id="8PEX_Hkn2caYpky-pX6P-128" value="C" style="ellipse;whiteSpace=wrap;html=1;aspect=fixed;fillColor=#9AC7BF;" vertex="1" parent="1">
          <mxGeometry x="1125" y="430" width="30" height="30" as="geometry" />
        </mxCell>
        <mxCell id="8PEX_Hkn2caYpky-pX6P-129" value="&amp;nbsp; &amp;nbsp; &amp;nbsp; &amp;nbsp; &amp;nbsp;Driver" style="rounded=0;whiteSpace=wrap;html=1;fillColor=#FFF2CC;" vertex="1" parent="1">
          <mxGeometry x="-92" y="430" width="120" height="40" as="geometry" />
        </mxCell>
        <mxCell id="8PEX_Hkn2caYpky-pX6P-130" value="" style="rounded=0;whiteSpace=wrap;html=1;fillColor=#FFF2CC;" vertex="1" parent="1">
          <mxGeometry x="-92" y="470" width="120" height="10" as="geometry" />
        </mxCell>
        <mxCell id="8PEX_Hkn2caYpky-pX6P-131" value="" style="rounded=0;whiteSpace=wrap;html=1;fillColor=#FFF2CC;" vertex="1" parent="1">
          <mxGeometry x="-92" y="480" width="120" height="10" as="geometry" />
        </mxCell>
        <mxCell id="8PEX_Hkn2caYpky-pX6P-133" value="&amp;nbsp; &amp;nbsp; &amp;nbsp; &amp;nbsp; &amp;nbsp; &amp;nbsp;UnregisteredDriver" style="rounded=0;whiteSpace=wrap;html=1;fillColor=#FFF2CC;" vertex="1" parent="1">
          <mxGeometry x="-260" y="320" width="160" height="40" as="geometry" />
        </mxCell>
        <mxCell id="8PEX_Hkn2caYpky-pX6P-134" value="" style="rounded=0;whiteSpace=wrap;html=1;fillColor=#FFF2CC;" vertex="1" parent="1">
          <mxGeometry x="-260" y="360" width="160" height="10" as="geometry" />
        </mxCell>
        <mxCell id="8PEX_Hkn2caYpky-pX6P-135" value="" style="rounded=0;whiteSpace=wrap;html=1;fillColor=#FFF2CC;" vertex="1" parent="1">
          <mxGeometry x="-260" y="370" width="160" height="10" as="geometry" />
        </mxCell>
        <mxCell id="8PEX_Hkn2caYpky-pX6P-136" value="A" style="ellipse;whiteSpace=wrap;html=1;aspect=fixed;fillColor=#B3B3B3;" vertex="1" parent="1">
          <mxGeometry x="-253" y="325" width="30" height="30" as="geometry" />
        </mxCell>
        <mxCell id="8PEX_Hkn2caYpky-pX6P-137" value="C" style="ellipse;whiteSpace=wrap;html=1;aspect=fixed;fillColor=#9AC7BF;" vertex="1" parent="1">
          <mxGeometry x="-82" y="435" width="30" height="30" as="geometry" />
        </mxCell>
        <mxCell id="8PEX_Hkn2caYpky-pX6P-138" value="" style="endArrow=classic;html=1;rounded=0;exitX=1;exitY=0;exitDx=0;exitDy=0;entryX=0.5;entryY=1;entryDx=0;entryDy=0;fillColor=#FFF2CC;" edge="1" parent="1" source="8PEX_Hkn2caYpky-pX6P-133" target="8PEX_Hkn2caYpky-pX6P-24">
          <mxGeometry width="50" height="50" relative="1" as="geometry">
            <mxPoint x="247.5" y="330" as="sourcePoint" />
            <mxPoint x="125" y="230" as="targetPoint" />
          </mxGeometry>
        </mxCell>
        <mxCell id="8PEX_Hkn2caYpky-pX6P-139" value="" style="endArrow=classic;html=1;rounded=0;exitX=0.25;exitY=0;exitDx=0;exitDy=0;entryX=0.5;entryY=1;entryDx=0;entryDy=0;fillColor=#FFF2CC;" edge="1" parent="1" source="8PEX_Hkn2caYpky-pX6P-129" target="8PEX_Hkn2caYpky-pX6P-135">
          <mxGeometry width="50" height="50" relative="1" as="geometry">
            <mxPoint x="257.5" y="340" as="sourcePoint" />
            <mxPoint x="135" y="240" as="targetPoint" />
          </mxGeometry>
        </mxCell>
        <mxCell id="8PEX_Hkn2caYpky-pX6P-140" value="&amp;nbsp; &amp;nbsp; &amp;nbsp; &amp;nbsp; &amp;nbsp; &amp;nbsp;CalciteConnectionImpl" style="rounded=0;whiteSpace=wrap;html=1;fillColor=#FFF2CC;" vertex="1" parent="1">
          <mxGeometry x="120" y="430" width="170" height="40" as="geometry" />
        </mxCell>
        <mxCell id="8PEX_Hkn2caYpky-pX6P-141" value="" style="rounded=0;whiteSpace=wrap;html=1;fillColor=#FFF2CC;" vertex="1" parent="1">
          <mxGeometry x="120" y="470" width="170" height="10" as="geometry" />
        </mxCell>
        <mxCell id="8PEX_Hkn2caYpky-pX6P-142" value="" style="rounded=0;whiteSpace=wrap;html=1;fillColor=#FFF2CC;" vertex="1" parent="1">
          <mxGeometry x="120" y="480" width="170" height="10" as="geometry" />
        </mxCell>
        <mxCell id="8PEX_Hkn2caYpky-pX6P-143" value="A" style="ellipse;whiteSpace=wrap;html=1;aspect=fixed;fillColor=#B3B3B3;" vertex="1" parent="1">
          <mxGeometry x="127" y="435" width="30" height="30" as="geometry" />
        </mxCell>
        <mxCell id="8PEX_Hkn2caYpky-pX6P-144" value="&amp;nbsp; &amp;nbsp; &amp;nbsp; &amp;nbsp; &amp;nbsp; &amp;nbsp; &amp;nbsp; CalciteJdbc41Connection" style="rounded=0;whiteSpace=wrap;html=1;fillColor=#FFF2CC;" vertex="1" parent="1">
          <mxGeometry x="112" y="545" width="186" height="40" as="geometry" />
        </mxCell>
        <mxCell id="8PEX_Hkn2caYpky-pX6P-145" value="" style="rounded=0;whiteSpace=wrap;html=1;fillColor=#FFF2CC;" vertex="1" parent="1">
          <mxGeometry x="112" y="585" width="186" height="10" as="geometry" />
        </mxCell>
        <mxCell id="8PEX_Hkn2caYpky-pX6P-146" value="" style="rounded=0;whiteSpace=wrap;html=1;fillColor=#FFF2CC;" vertex="1" parent="1">
          <mxGeometry x="112" y="595" width="186" height="10" as="geometry" />
        </mxCell>
        <mxCell id="8PEX_Hkn2caYpky-pX6P-147" value="C" style="ellipse;whiteSpace=wrap;html=1;aspect=fixed;fillColor=#9AC7BF;" vertex="1" parent="1">
          <mxGeometry x="121" y="550" width="30" height="30" as="geometry" />
        </mxCell>
        <mxCell id="8PEX_Hkn2caYpky-pX6P-148" value="" style="endArrow=classic;html=1;rounded=0;exitX=0.5;exitY=0;exitDx=0;exitDy=0;entryX=0.5;entryY=1;entryDx=0;entryDy=0;fillColor=#FFF2CC;" edge="1" parent="1" source="8PEX_Hkn2caYpky-pX6P-140" target="8PEX_Hkn2caYpky-pX6P-42">
          <mxGeometry width="50" height="50" relative="1" as="geometry">
            <mxPoint x="317.5499999999997" y="330" as="sourcePoint" />
            <mxPoint x="430" y="230" as="targetPoint" />
          </mxGeometry>
        </mxCell>
        <mxCell id="8PEX_Hkn2caYpky-pX6P-149" value="" style="endArrow=classic;html=1;rounded=0;exitX=0.75;exitY=0;exitDx=0;exitDy=0;entryX=0.5;entryY=1;entryDx=0;entryDy=0;fillColor=#FFF2CC;" edge="1" parent="1" source="8PEX_Hkn2caYpky-pX6P-140" target="8PEX_Hkn2caYpky-pX6P-43">
          <mxGeometry width="50" height="50" relative="1" as="geometry">
            <mxPoint x="327.5499999999997" y="340" as="sourcePoint" />
            <mxPoint x="440" y="240" as="targetPoint" />
          </mxGeometry>
        </mxCell>
        <mxCell id="8PEX_Hkn2caYpky-pX6P-150" value="" style="endArrow=classic;html=1;rounded=0;exitX=0.25;exitY=0;exitDx=0;exitDy=0;entryX=0.25;entryY=1;entryDx=0;entryDy=0;fillColor=#FFF2CC;" edge="1" parent="1" source="8PEX_Hkn2caYpky-pX6P-140" target="8PEX_Hkn2caYpky-pX6P-49">
          <mxGeometry width="50" height="50" relative="1" as="geometry">
            <mxPoint x="337.5499999999997" y="350" as="sourcePoint" />
            <mxPoint x="450" y="250" as="targetPoint" />
          </mxGeometry>
        </mxCell>
        <mxCell id="8PEX_Hkn2caYpky-pX6P-152" value="" style="endArrow=classic;html=1;rounded=0;entryX=0.5;entryY=1;entryDx=0;entryDy=0;fillColor=#FFF2CC;" edge="1" parent="1" source="8PEX_Hkn2caYpky-pX6P-144" target="8PEX_Hkn2caYpky-pX6P-142">
          <mxGeometry width="50" height="50" relative="1" as="geometry">
            <mxPoint x="215" y="440" as="sourcePoint" />
            <mxPoint x="285" y="390" as="targetPoint" />
          </mxGeometry>
        </mxCell>
        <mxCell id="8PEX_Hkn2caYpky-pX6P-154" value="" style="edgeStyle=none;rounded=0;orthogonalLoop=1;jettySize=auto;html=1;fillColor=#FFF2CC;elbow=vertical;entryX=0.5;entryY=0;entryDx=0;entryDy=0;" edge="1" parent="1" source="8PEX_Hkn2caYpky-pX6P-153" target="8PEX_Hkn2caYpky-pX6P-129">
          <mxGeometry relative="1" as="geometry" />
        </mxCell>
        <mxCell id="8PEX_Hkn2caYpky-pX6P-153" value="calcite jdbc driver" style="shape=note;whiteSpace=wrap;html=1;backgroundOutline=1;darkOpacity=0.05;fillColor=#FFFF99;size=16;" vertex="1" parent="1">
          <mxGeometry x="-50" y="360" width="162" height="40" as="geometry" />
        </mxCell>
        <mxCell id="8PEX_Hkn2caYpky-pX6P-156" value="" style="edgeStyle=none;rounded=0;orthogonalLoop=1;jettySize=auto;html=1;fillColor=#FFF2CC;elbow=vertical;" edge="1" parent="1" source="8PEX_Hkn2caYpky-pX6P-155" target="8PEX_Hkn2caYpky-pX6P-43">
          <mxGeometry relative="1" as="geometry" />
        </mxCell>
        <mxCell id="8PEX_Hkn2caYpky-pX6P-155" value="avatica框架的jdbc connection实现" style="shape=note;whiteSpace=wrap;html=1;backgroundOutline=1;darkOpacity=0.05;fillColor=#FFFF99;size=16;" vertex="1" parent="1">
          <mxGeometry x="315" y="450" width="270" height="40" as="geometry" />
        </mxCell>
        <mxCell id="8PEX_Hkn2caYpky-pX6P-158" value="" style="edgeStyle=none;rounded=0;orthogonalLoop=1;jettySize=auto;html=1;fillColor=#FFF2CC;elbow=vertical;entryX=0.439;entryY=-0.037;entryDx=0;entryDy=0;entryPerimeter=0;" edge="1" parent="1" source="8PEX_Hkn2caYpky-pX6P-157" target="8PEX_Hkn2caYpky-pX6P-133">
          <mxGeometry relative="1" as="geometry" />
        </mxCell>
        <mxCell id="8PEX_Hkn2caYpky-pX6P-157" value="JDBC driver的实现，基于它可以较容易实现一个JDBC Driver" style="shape=note;whiteSpace=wrap;html=1;backgroundOutline=1;darkOpacity=0.05;fillColor=#FFFF99;size=15;" vertex="1" parent="1">
          <mxGeometry x="-370" y="230" width="360" height="40" as="geometry" />
        </mxCell>
      </root>
    </mxGraphModel>
  </diagram>
</mxfile>
